<svg id="Layer_1" data-name="Layer 1" xmlns="http://www.w3.org/2000/svg" viewBox="0 0 100 100"><path d="M84.93,40.02a4.99,4.99,0,0,1,4.99,4.99V84.93a4.99,4.99,0,1,1-9.98,0V45.01a4.99,4.99,0,0,1,4.99-4.99m0-10.08A15.087,15.087,0,0,0,69.86,45.01V84.93a15.07,15.07,0,1,0,30.14,0V45.01A15.087,15.087,0,0,0,84.93,29.94Z"/><path d="M15.07,69.96a4.99,4.99,0,0,1,4.99,4.99v9.98a4.99,4.99,0,0,1-9.98,0V74.95a4.99,4.99,0,0,1,4.99-4.99m0-10.08A15.087,15.087,0,0,0,0,74.95v9.98a15.07,15.07,0,0,0,30.14,0V74.95A15.088,15.088,0,0,0,15.07,59.88Z"/><path d="M50,10.08a4.99,4.99,0,0,1,4.99,4.99V84.93a4.99,4.99,0,0,1-9.98,0V15.07A4.99,4.99,0,0,1,50,10.08M50,0A15.087,15.087,0,0,0,34.93,15.07V84.93a15.07,15.07,0,1,0,30.14,0V15.07A15.087,15.087,0,0,0,50,0Z"/></svg>