<?xml version="1.0" standalone="no"?>
<!DOCTYPE svg PUBLIC "-//W3C//DTD SVG 20010904//EN"
 "http://www.w3.org/TR/2001/REC-SVG-20010904/DTD/svg10.dtd">
<svg version="1.0" xmlns="http://www.w3.org/2000/svg"
 width="1387.000000pt" height="1387.000000pt" viewBox="0 0 1387.000000 1387.000000"
 preserveAspectRatio="xMidYMid meet">
<metadata>
Created by potrace 1.16, written by Peter Selinger 2001-2019
</metadata>
<g transform="translate(0.000000,1387.000000) scale(0.100000,-0.100000)"
fill="#000000" stroke="none">
<path d="M6575 13464 c-22 -2 -107 -8 -190 -14 -181 -13 -465 -48 -480 -59 -5
-4 -48 -13 -95 -21 -213 -32 -657 -130 -669 -147 -3 -6 -19 -13 -36 -17 -101
-23 -447 -133 -455 -145 -3 -4 -32 -17 -65 -29 -54 -18 -187 -70 -305 -118
-25 -10 -48 -22 -51 -26 -3 -5 -54 -30 -115 -57 -143 -63 -208 -94 -215 -104
-3 -4 -66 -39 -140 -78 -74 -39 -138 -77 -142 -85 -4 -8 -12 -14 -18 -14 -5 0
-42 -20 -82 -44 -39 -24 -87 -51 -105 -60 -18 -9 -41 -25 -51 -34 -23 -22 -78
-62 -86 -62 -12 0 -155 -104 -155 -112 0 -5 -8 -12 -18 -16 -30 -12 -172 -115
-219 -159 -25 -23 -64 -55 -87 -70 -22 -15 -73 -58 -112 -95 -40 -37 -76 -68
-81 -68 -17 0 -573 -558 -573 -576 0 -6 -25 -35 -56 -65 -30 -30 -70 -76 -88
-103 -18 -27 -52 -69 -75 -95 -22 -25 -70 -86 -106 -136 -36 -49 -69 -95 -74
-101 -36 -45 -104 -143 -117 -170 -9 -18 -26 -44 -39 -58 -24 -26 -155 -241
-155 -255 0 -4 -10 -19 -23 -33 -13 -14 -52 -81 -86 -149 -35 -67 -68 -128
-75 -134 -6 -7 -28 -50 -50 -96 -21 -46 -66 -140 -99 -209 -55 -116 -75 -164
-144 -355 -14 -38 -29 -72 -32 -75 -13 -10 -111 -311 -146 -450 -9 -36 -20
-67 -24 -70 -16 -11 -108 -438 -141 -650 -7 -41 -16 -84 -21 -95 -16 -37 -43
-282 -64 -585 -25 -352 -18 -743 20 -1120 24 -240 35 -324 43 -330 5 -3 16
-57 26 -120 32 -211 121 -617 137 -630 3 -3 16 -41 29 -85 38 -137 133 -430
140 -435 3 -3 16 -30 27 -60 81 -211 127 -326 134 -330 4 -3 16 -26 27 -50 11
-25 28 -65 40 -90 11 -25 34 -76 51 -114 17 -39 38 -77 46 -85 9 -9 47 -78 85
-153 38 -75 78 -146 90 -158 12 -12 29 -38 37 -58 8 -20 59 -102 114 -184 54
-81 99 -151 99 -154 0 -7 53 -76 92 -118 16 -17 28 -34 28 -39 0 -13 102 -145
116 -151 8 -3 14 -10 14 -16 0 -12 121 -163 189 -236 26 -28 59 -66 74 -85 57
-75 446 -456 587 -575 30 -26 69 -59 85 -73 17 -15 66 -55 110 -89 44 -34 114
-89 156 -123 42 -34 89 -67 105 -75 16 -8 49 -32 74 -54 25 -22 59 -47 75 -54
17 -8 59 -35 94 -60 36 -25 71 -46 78 -46 7 0 13 -4 13 -9 0 -9 80 -58 198
-122 34 -18 62 -36 62 -40 0 -3 71 -41 158 -84 86 -43 159 -82 162 -86 3 -4
26 -16 50 -27 25 -11 71 -31 102 -46 31 -14 60 -26 63 -26 3 0 31 -11 61 -25
30 -14 59 -25 63 -25 5 0 11 -4 13 -9 4 -11 124 -59 295 -117 76 -26 140 -50
143 -54 7 -11 325 -103 490 -141 30 -8 57 -16 60 -20 15 -21 578 -118 810
-140 69 -7 127 -15 130 -19 10 -13 367 -30 625 -30 262 0 635 18 635 30 0 4
35 10 78 14 180 16 547 72 727 111 39 9 82 18 98 22 15 3 27 9 27 13 0 4 15
10 33 12 82 12 479 126 527 152 14 7 57 23 95 35 39 13 97 33 130 46 33 12 93
35 133 50 39 16 72 32 72 37 0 4 7 8 15 8 9 0 37 11 63 24 26 13 79 36 117 51
39 16 85 37 103 47 18 10 39 18 47 18 8 0 15 4 15 8 0 5 53 35 117 67 65 32
168 88 228 124 61 36 132 77 158 91 26 14 64 39 84 57 20 18 41 33 47 33 5 0
42 23 82 50 40 28 76 50 81 50 5 0 16 9 25 19 9 11 64 52 122 91 58 39 106 74
106 79 0 5 32 30 71 57 39 26 91 67 114 91 24 24 47 43 50 43 8 0 42 29 165
140 47 42 105 94 130 116 25 21 47 42 51 46 3 5 52 56 110 116 141 146 212
223 287 312 34 41 83 98 108 125 24 28 62 76 84 107 22 32 58 76 80 99 22 23
40 45 40 50 0 12 90 139 99 139 4 0 25 29 46 65 22 36 56 92 75 123 19 32 45
69 58 82 12 13 32 44 44 69 24 50 97 173 107 181 4 3 40 70 80 150 41 80 77
147 81 150 4 3 31 59 60 125 28 66 63 144 76 174 13 29 24 59 24 66 0 8 5 15
10 17 11 3 68 145 121 303 17 50 35 92 39 95 13 8 83 247 136 460 14 58 30
113 35 123 26 48 110 517 136 757 9 85 20 157 24 160 14 10 32 381 32 655 0
291 -18 648 -34 653 -5 2 -9 21 -9 42 0 124 -126 873 -150 890 -4 3 -13 30
-20 60 -30 125 -123 448 -140 485 -10 22 -32 81 -50 130 -17 50 -47 128 -66
175 -19 47 -34 91 -34 97 0 6 -6 18 -13 25 -8 7 -26 44 -41 81 -14 37 -39 95
-55 129 -16 35 -38 85 -50 113 -12 27 -25 52 -30 55 -4 3 -28 46 -53 95 -90
179 -99 197 -119 218 -9 10 -28 43 -43 74 -15 30 -43 79 -62 109 -19 29 -34
58 -34 64 0 5 -4 10 -9 10 -5 0 -41 51 -80 113 -39 62 -86 130 -106 151 -19
21 -35 43 -35 49 0 10 -66 103 -102 142 -10 11 -47 58 -82 105 -35 47 -76 97
-91 113 -15 15 -50 55 -77 90 -111 139 -480 512 -640 645 -31 26 -66 59 -78
75 -12 15 -26 27 -32 27 -10 0 -93 66 -143 112 -11 11 -60 48 -110 83 -49 35
-101 73 -114 85 -32 29 -117 90 -125 90 -11 0 -98 61 -125 87 -13 13 -28 23
-32 23 -5 0 -39 19 -76 43 -38 24 -88 53 -113 66 -24 13 -49 29 -55 36 -5 7
-68 43 -140 79 -71 36 -135 70 -140 74 -25 20 -302 152 -318 152 -5 0 -15 6
-22 14 -12 11 -140 65 -335 139 -30 11 -57 24 -60 28 -5 7 -351 118 -435 140
-27 7 -52 16 -55 20 -14 20 -660 158 -742 159 -16 0 -28 4 -28 9 0 9 -168 32
-410 57 -145 14 -877 28 -985 18z m729 -375 c3 -3 3 -51 -1 -107 l-6 -102 -89
0 -88 0 0 -183 c0 -101 -3 -239 -7 -305 l-6 -122 -89 0 -90 0 7 304 8 303 -33
12 c-18 6 -59 11 -91 11 l-59 0 0 101 0 101 269 -3 c148 -2 272 -6 275 -10z
m-927 -9 c44 -10 66 -24 118 -75 54 -54 80 -96 103 -174 33 -104 37 -337 8
-420 -24 -70 -114 -161 -159 -161 -9 0 -17 -5 -19 -12 -6 -18 -159 -17 -178 0
-8 7 -31 21 -50 31 -41 21 -100 95 -119 149 -8 20 -18 39 -22 42 -17 12 -39
155 -39 258 0 106 15 184 42 218 17 21 101 106 120 120 37 29 127 39 195 24z
m1251 -15 c2 -2 -6 -115 -18 -252 -11 -136 -25 -304 -30 -373 -6 -69 -13 -144
-16 -167 -6 -41 -8 -43 -40 -43 -19 0 -34 5 -34 10 0 6 -22 10 -49 10 -28 0
-52 3 -54 8 -3 4 10 185 29 402 18 217 34 401 34 408 0 10 19 12 88 6 48 -4
88 -8 90 -9z m310 -49 c40 -8 76 -16 79 -20 5 -5 -4 -69 -27 -186 -5 -25 -11
-61 -14 -80 l-6 -35 20 25 c19 24 100 113 183 203 l37 40 115 -18 c63 -11 115
-22 115 -27 0 -4 -58 -67 -130 -138 -78 -78 -130 -139 -130 -150 0 -11 4 -20
9 -20 4 0 11 -19 15 -42 4 -24 26 -136 49 -250 25 -123 38 -208 32 -208 -25 0
-191 33 -198 39 -7 7 -32 153 -44 259 -3 28 -10 52 -14 52 -5 0 -9 8 -9 18 -1
11 -18 -1 -54 -40 -53 -55 -54 -59 -71 -153 -10 -52 -20 -97 -24 -99 -3 -2
-44 4 -91 13 -67 13 -86 21 -88 35 -2 10 0 21 5 25 5 3 35 150 67 326 77 431
80 445 93 445 4 0 41 -6 81 -14z m-2160 -123 c-23 -65 -44 -120 -48 -123 -4
-3 -16 -31 -25 -62 l-18 -57 37 -43 c21 -24 64 -79 97 -123 32 -44 65 -87 72
-95 44 -50 132 -179 125 -185 -5 -5 -131 -34 -173 -40 -43 -7 -40 -9 -91 83
-7 12 -20 29 -29 38 -21 21 -75 101 -75 111 0 4 -9 19 -19 32 l-19 24 -16 -56
c-9 -30 -21 -57 -28 -59 -13 -5 -13 -78 -1 -87 12 -9 42 -135 35 -142 -4 -3
-35 -12 -69 -19 -35 -7 -63 -17 -63 -21 0 -5 -8 -9 -19 -9 -15 0 -21 13 -32
60 -7 33 -16 60 -21 60 -4 0 -10 17 -14 38 -5 32 -31 144 -100 432 -10 41 -19
77 -19 80 -1 3 -5 24 -9 48 -4 23 -12 42 -18 42 -5 0 -8 10 -6 22 2 18 12 25
48 32 25 5 48 14 51 19 4 5 24 10 45 11 36 1 39 -1 45 -34 16 -85 51 -226 58
-233 4 -4 25 55 46 130 21 76 42 140 45 143 4 3 10 14 14 26 5 15 23 24 84 38
42 10 91 22 107 26 17 5 33 9 36 9 4 1 -11 -52 -33 -116z m3092 -102 l85 -27
-2 -55 c-12 -291 -41 -801 -46 -806 -2 -2 -17 3 -33 11 -16 8 -55 22 -86 30
l-56 17 5 73 6 74 -34 7 c-18 4 -60 16 -93 27 -48 16 -61 17 -67 6 -4 -7 -17
-24 -28 -37 -12 -13 -21 -30 -21 -36 0 -25 -25 -35 -63 -24 -20 5 -37 14 -37
18 0 5 -15 12 -32 15 -57 11 -63 19 -42 55 10 17 22 31 26 31 6 0 75 110 140
223 9 16 25 39 36 51 18 21 55 79 105 166 14 25 39 60 56 79 17 19 31 38 31
43 0 13 49 88 58 87 4 0 45 -13 92 -28z m-3833 -104 c54 -57 68 -85 83 -165
12 -66 -2 -141 -34 -175 l-23 -25 30 -6 c30 -6 51 -26 166 -151 78 -86 97
-113 85 -125 -5 -4 -46 -20 -92 -35 l-83 -28 -40 39 c-21 21 -39 41 -39 45 0
4 -33 41 -74 83 -65 67 -78 76 -110 76 l-36 0 17 -42 c9 -24 19 -45 23 -48 10
-9 72 -184 74 -209 1 -21 -8 -27 -79 -52 -44 -15 -80 -27 -81 -26 -2 3 -56
151 -61 170 -3 9 -9 17 -13 17 -4 0 -11 12 -14 28 -4 15 -20 61 -36 102 -16
41 -48 129 -72 195 -23 66 -46 121 -50 123 -11 5 -51 133 -43 140 4 4 28 14
53 23 191 67 227 81 232 89 9 15 112 27 141 18 14 -5 48 -32 76 -61z m4648
-229 l65 -32 0 -86 c-1 -47 -5 -157 -10 -245 -4 -88 -7 -161 -5 -163 2 -2 22
35 46 82 23 47 45 86 49 86 4 0 28 45 53 99 25 55 51 103 58 106 14 10 149
-55 149 -71 0 -15 -86 -184 -104 -204 -7 -8 -44 -78 -82 -155 -38 -77 -73
-143 -79 -147 -6 -3 -32 -54 -60 -112 -27 -58 -54 -106 -59 -106 -5 0 -41 14
-79 32 l-69 32 6 215 c4 119 9 234 13 256 5 38 4 37 -32 -30 -21 -38 -40 -72
-44 -75 -4 -3 -34 -60 -67 -127 -32 -67 -63 -122 -68 -122 -20 -2 -123 51
-133 68 -9 14 -1 38 43 126 30 60 59 112 63 115 5 3 41 71 81 153 39 81 75
147 79 147 5 0 23 33 40 73 38 84 58 117 71 117 5 0 39 -14 75 -32z m-5477
-33 c12 -14 19 -25 16 -25 -3 0 23 -28 58 -63 35 -35 104 -108 153 -162 50
-54 108 -117 130 -139 22 -23 70 -75 105 -116 36 -41 71 -80 78 -85 10 -8 1
-17 -39 -35 -29 -14 -65 -35 -80 -48 -27 -22 -59 -21 -59 2 0 6 -16 28 -35 48
l-35 38 -85 -42 c-54 -26 -85 -47 -85 -57 0 -9 7 -38 15 -65 19 -62 19 -63 -5
-71 -11 -3 -26 -12 -33 -19 -15 -16 -92 -56 -106 -56 -5 0 -12 19 -16 43 -3
23 -10 56 -15 72 -4 17 -23 100 -41 185 -18 85 -36 157 -40 160 -3 3 -23 82
-43 175 -20 94 -39 176 -41 182 -2 7 10 20 28 29 18 9 34 20 37 23 9 11 85 49
101 50 8 1 25 -10 37 -24z m-481 -350 c9 -16 24 -38 34 -47 20 -20 79 -103 79
-112 0 -9 69 -107 92 -131 11 -11 48 -65 84 -120 36 -55 69 -102 73 -105 4 -3
17 -19 29 -36 l22 -32 -25 -16 c-13 -9 -28 -16 -33 -16 -5 0 -25 -16 -44 -36
-33 -32 -39 -34 -60 -23 -12 6 -25 15 -28 20 -3 4 -60 36 -128 71 -68 36 -132
72 -143 82 -27 22 -99 60 -104 54 -3 -2 3 -13 13 -24 28 -32 122 -172 122
-182 0 -6 13 -23 28 -40 15 -16 40 -46 56 -66 l27 -36 -28 -30 c-15 -17 -32
-30 -38 -30 -5 0 -21 -9 -35 -20 -14 -11 -31 -20 -37 -20 -7 0 -27 25 -44 55
-17 30 -34 55 -38 55 -8 0 -91 115 -91 126 0 8 -67 100 -97 132 -13 14 -23 29
-23 33 0 7 -88 139 -117 174 -34 42 -63 85 -63 93 0 9 48 46 60 47 3 0 18 13
34 28 16 15 33 27 38 27 8 0 57 -29 68 -40 6 -6 21 -15 155 -85 61 -31 115
-63 120 -70 6 -6 29 -22 52 -34 33 -16 41 -18 37 -6 -4 8 -10 15 -15 15 -5 0
-13 8 -16 18 -4 9 -28 47 -55 83 -26 37 -48 71 -48 76 0 6 -10 21 -23 35 -29
31 -97 124 -97 132 0 3 30 26 68 50 l67 44 28 -31 c16 -18 35 -45 44 -62z
m6778 -113 c50 -34 70 -53 68 -67 -2 -27 -73 -229 -83 -235 -4 -3 -26 -59 -48
-125 -23 -66 -59 -171 -80 -233 -21 -61 -41 -110 -44 -107 -3 3 -10 -13 -17
-35 -6 -21 -15 -41 -20 -44 -5 -3 -34 12 -65 34 -31 22 -61 40 -66 40 -27 0
-17 75 14 106 18 18 22 54 5 54 -15 0 -102 60 -117 82 -20 27 -36 22 -83 -27
-24 -25 -47 -45 -52 -45 -4 0 -23 11 -41 25 -18 14 -36 25 -39 25 -15 0 -70
61 -62 68 6 5 30 24 55 43 25 18 65 53 89 77 25 24 61 54 80 67 20 12 62 46
93 76 31 30 76 69 100 88 24 18 66 53 93 77 108 94 121 103 135 103 8 0 47
-21 85 -47z m-3095 -102 c234 -21 633 -85 678 -109 9 -6 73 -24 142 -41 145
-36 374 -106 410 -126 14 -7 68 -30 120 -49 52 -20 127 -49 165 -65 39 -17 75
-30 82 -30 7 0 16 -6 20 -13 4 -6 28 -22 53 -33 138 -65 286 -139 291 -146 6
-9 93 -61 163 -98 26 -14 65 -40 86 -57 21 -18 41 -33 45 -33 10 0 180 -115
206 -139 11 -10 46 -36 76 -58 30 -21 78 -59 107 -84 28 -25 74 -63 101 -84
78 -60 435 -408 435 -424 0 -4 34 -42 75 -84 41 -42 75 -80 75 -86 0 -5 21
-31 47 -57 25 -26 67 -79 93 -118 26 -39 61 -86 79 -105 17 -18 31 -35 31 -38
0 -2 23 -37 50 -78 28 -41 55 -86 60 -99 5 -14 19 -35 30 -46 21 -21 160 -265
160 -280 0 -5 7 -15 15 -23 15 -16 75 -126 75 -139 0 -4 16 -40 35 -79 19 -40
35 -78 35 -84 0 -7 9 -24 20 -38 20 -25 65 -140 117 -296 14 -41 33 -93 44
-115 24 -54 80 -258 130 -476 50 -219 73 -354 101 -595 17 -146 17 -872 0
-1005 -44 -339 -51 -391 -62 -415 -5 -11 -25 -95 -45 -188 -20 -92 -46 -204
-59 -250 -13 -45 -27 -98 -31 -117 -4 -19 -14 -46 -21 -60 -8 -14 -37 -90 -65
-170 -83 -236 -98 -273 -107 -279 -11 -7 -42 -66 -42 -79 0 -14 -111 -246
-120 -252 -5 -3 -29 -43 -53 -90 -87 -165 -109 -205 -116 -210 -11 -7 -81
-114 -81 -123 0 -10 -76 -113 -90 -122 -5 -3 -16 -20 -25 -38 -8 -18 -27 -45
-43 -62 -15 -16 -40 -50 -57 -75 -16 -24 -52 -68 -80 -98 -27 -30 -61 -71 -75
-91 -14 -20 -53 -63 -87 -95 -35 -33 -63 -63 -63 -67 0 -11 -217 -229 -227
-229 -4 0 -33 -26 -63 -57 -30 -30 -71 -67 -90 -82 -19 -14 -64 -51 -100 -82
-36 -31 -103 -84 -150 -117 -47 -34 -116 -85 -153 -114 -38 -29 -76 -55 -85
-57 -14 -3 -117 -69 -147 -93 -18 -15 -185 -108 -194 -108 -5 0 -32 -15 -60
-34 -28 -19 -102 -58 -164 -86 -61 -28 -143 -67 -182 -85 -83 -41 -136 -61
-310 -121 -71 -24 -142 -51 -156 -59 -14 -8 -43 -18 -65 -23 -21 -6 -83 -21
-136 -36 -100 -26 -292 -69 -363 -81 -22 -4 -44 -10 -50 -14 -14 -11 -133 -28
-425 -63 -144 -17 -807 -17 -965 0 -206 22 -404 51 -430 63 -11 5 -85 22 -165
38 -80 16 -188 42 -240 56 -52 14 -119 33 -149 41 -30 8 -60 18 -65 23 -6 4
-49 21 -96 36 -47 16 -124 43 -171 61 -47 18 -98 36 -113 40 -14 3 -29 10 -32
15 -5 9 -16 14 -154 74 -138 61 -208 95 -212 104 -2 4 -30 21 -63 37 -104 52
-199 105 -220 124 -11 10 -49 35 -85 56 -36 21 -86 53 -112 71 -26 18 -52 33
-58 33 -5 0 -10 4 -10 9 0 8 -85 73 -172 131 -21 14 -38 28 -38 32 0 3 -35 32
-77 64 -87 64 -109 84 -340 314 -90 89 -163 165 -163 171 0 5 -5 9 -10 9 -12
0 -77 71 -101 109 -9 14 -42 53 -73 86 -31 33 -56 63 -56 68 0 11 -102 137
-111 137 -3 0 -12 13 -18 28 -6 15 -22 40 -34 54 -12 15 -35 50 -52 79 -16 28
-40 63 -53 77 -25 28 -162 267 -162 282 0 6 -4 10 -10 10 -10 0 -214 410 -240
485 -54 155 -84 232 -95 245 -7 8 -20 40 -28 70 -8 30 -27 96 -41 145 -14 50
-37 135 -51 190 -15 55 -33 114 -41 132 -8 17 -14 40 -14 51 0 12 -7 53 -15
93 -83 395 -112 954 -75 1428 19 236 84 653 109 698 10 18 34 103 53 193 17
78 100 335 109 338 5 2 9 9 9 16 0 8 9 35 19 62 11 27 43 110 72 184 28 74 58
142 64 150 11 13 81 157 138 283 9 20 21 37 26 37 5 0 27 36 50 81 23 44 57
104 76 132 19 28 35 57 35 63 0 7 6 14 13 17 7 2 35 42 62 87 28 45 69 104 92
131 23 27 58 73 77 103 19 29 51 71 73 92 21 21 47 52 58 70 47 76 444 475
583 587 26 21 63 52 83 70 50 45 73 63 119 92 23 14 57 41 78 59 20 18 81 61
135 96 53 35 97 67 97 72 0 4 5 8 11 8 6 0 29 13 52 29 23 15 77 47 119 69 43
23 87 50 99 61 12 11 38 26 58 32 19 7 57 25 85 41 27 16 74 39 103 50 29 10
60 26 68 34 8 8 54 30 102 50 48 19 97 39 108 43 11 5 54 22 95 37 41 15 77
30 80 33 11 14 270 94 440 135 58 15 113 31 123 36 44 25 458 91 692 110 72 5
148 12 170 14 77 8 641 -3 765 -14z m3579 -277 c3 -5 22 -19 42 -31 58 -35
118 -108 129 -158 12 -52 6 -82 -27 -144 -41 -75 -46 -78 -90 -45 -21 16 -46
36 -55 46 -9 9 -22 19 -29 21 -10 3 -9 11 2 36 8 18 17 32 21 32 14 0 8 29 -9
51 -48 57 -61 61 -93 27 -28 -30 -26 -46 19 -141 67 -142 74 -203 32 -285 -55
-107 -157 -174 -266 -175 -33 0 -71 5 -85 13 -115 60 -174 144 -173 244 1 47
9 74 38 133 21 40 43 73 49 73 7 0 28 -15 48 -34 20 -19 48 -42 62 -51 l25
-17 -21 -39 c-43 -83 -17 -153 58 -153 44 0 84 40 84 84 0 16 -18 65 -40 110
-49 102 -57 151 -36 222 19 66 82 141 131 160 19 6 35 15 35 19 0 4 8 10 18
13 25 7 124 -1 131 -11z m-8137 -110 c21 -20 38 -40 38 -44 0 -5 142 -152 411
-424 38 -38 69 -76 69 -82 0 -16 -89 -101 -113 -109 -10 -3 -48 6 -85 19 -37
14 -107 40 -157 58 -49 18 -92 36 -95 39 -3 3 -31 15 -62 27 l-57 20 37 -46
c20 -25 85 -95 145 -155 59 -60 107 -114 107 -120 0 -15 -95 -116 -109 -116
-6 0 -41 32 -78 72 -38 40 -127 133 -200 208 -72 74 -170 176 -217 225 l-87
90 58 52 c32 29 63 52 69 53 6 0 83 -25 170 -56 87 -31 179 -63 204 -71 25 -9
47 -19 50 -23 3 -3 13 -9 23 -13 13 -5 16 -3 10 6 -12 18 -136 148 -227 237
l-79 77 54 56 c30 32 61 57 69 57 8 0 31 -17 52 -37z m8648 -389 c0 -7 -15
-23 -32 -37 -18 -13 -63 -53 -99 -88 -37 -35 -120 -113 -185 -174 -99 -92
-190 -178 -271 -254 -13 -12 -23 -5 -80 52 -65 65 -66 67 -48 87 10 11 23 20
30 20 6 0 44 36 85 80 40 43 76 77 80 75 4 -3 40 28 79 68 82 83 218 211 276
261 l39 34 63 -57 c34 -31 62 -61 63 -67z m-9250 -290 c36 -14 67 -30 70 -34
3 -4 34 -19 70 -35 36 -15 99 -42 140 -60 41 -18 92 -38 113 -46 20 -7 37 -16
37 -20 0 -6 36 -23 182 -85 43 -18 64 -32 60 -40 -22 -37 -98 -134 -106 -134
-5 0 -35 12 -67 26 l-59 27 -22 -29 c-12 -16 -34 -40 -48 -54 -14 -14 -31 -37
-39 -52 -14 -27 -13 -29 33 -74 52 -52 54 -40 -16 -119 -15 -16 -35 -40 -45
-53 l-19 -24 -39 59 c-22 32 -45 63 -51 68 -15 14 -106 142 -133 188 -13 20
-26 37 -31 37 -4 0 -38 44 -75 99 -36 54 -79 111 -96 127 -16 15 -29 32 -29
37 0 6 -11 25 -25 43 l-25 33 34 48 c49 68 89 105 106 99 8 -2 44 -17 80 -32z
m9481 -5 c22 -11 39 -24 39 -30 0 -5 8 -13 18 -16 40 -16 87 -95 97 -165 8
-56 -8 -138 -38 -188 -29 -46 -154 -173 -197 -199 -19 -11 -62 -35 -95 -52
-33 -17 -63 -37 -67 -43 -4 -6 -50 -12 -110 -14 -113 -4 -96 -11 -199 75 -78
64 -106 147 -85 248 14 67 26 94 59 128 12 13 43 48 68 78 28 32 75 71 120 98
40 24 79 50 86 57 12 12 86 36 143 47 42 9 121 -3 161 -24z m392 -503 c9 -7
17 -17 17 -21 0 -4 14 -30 30 -57 l31 -49 -21 -29 c-11 -15 -20 -32 -20 -38 0
-5 -10 -20 -23 -33 -27 -28 -87 -114 -87 -125 0 -10 -80 -127 -93 -135 -4 -3
-14 -17 -22 -32 l-13 -25 36 15 c20 8 41 21 47 28 5 7 64 44 130 81 66 38 125
74 130 80 6 7 19 14 30 17 16 5 27 -6 58 -58 20 -35 37 -69 37 -74 0 -6 -13
-17 -29 -26 -16 -8 -31 -19 -33 -24 -1 -5 -28 -22 -58 -39 -145 -77 -225 -123
-230 -133 -6 -9 -144 -89 -235 -137 -16 -9 -34 -21 -40 -27 -14 -16 -62 -45
-74 -45 -5 0 -17 18 -27 40 -10 22 -22 40 -26 40 -5 0 -16 15 -24 34 -15 31
-15 35 1 60 10 14 21 26 26 26 5 0 9 5 9 10 0 6 21 43 48 83 26 40 54 85 62
100 8 16 24 38 35 50 42 44 90 127 63 111 -6 -4 -18 -14 -27 -22 -9 -8 -67
-43 -130 -77 -63 -35 -117 -68 -120 -72 -3 -5 -23 -19 -44 -31 -31 -18 -41
-20 -57 -9 -11 6 -23 21 -27 32 -3 11 -17 37 -30 59 -28 43 -27 45 37 73 19 8
45 25 57 37 11 11 73 49 136 84 64 34 117 66 119 70 3 8 182 112 192 112 10 0
88 52 108 73 21 20 27 21 51 3z m-10203 -15 c0 -5 18 -11 40 -15 47 -7 208
-84 260 -124 36 -28 54 -44 108 -95 65 -63 95 -165 74 -249 -10 -39 -89 -183
-128 -233 -8 -11 -21 -28 -28 -38 -11 -18 -17 -16 -97 27 -46 26 -88 52 -94
59 -12 14 -83 61 -106 69 -9 4 -48 27 -88 52 -39 25 -74 46 -77 46 -2 0 -14 8
-25 19 -11 10 -67 45 -124 77 -58 33 -105 62 -105 66 0 8 89 150 99 158 3 3
13 18 21 35 25 50 103 124 138 131 18 4 32 10 32 15 0 5 23 9 50 9 28 0 50 -4
50 -9z m-165 -757 c181 -31 332 -60 335 -64 3 -4 27 -10 54 -14 27 -3 51 -8
53 -9 1 -2 -14 -41 -35 -86 l-37 -83 -45 6 c-25 4 -46 11 -48 16 -2 6 -15 10
-28 10 -17 0 -24 -6 -24 -19 0 -11 -6 -26 -14 -33 -17 -18 -46 -74 -57 -110
-6 -24 -3 -31 21 -48 15 -11 32 -20 37 -20 6 0 18 -9 28 -20 17 -19 17 -22 -5
-75 -12 -30 -26 -55 -30 -55 -4 0 -12 -12 -18 -26 l-12 -25 -28 21 c-15 12
-49 41 -77 65 -97 85 -180 151 -197 158 -10 3 -18 10 -18 15 0 9 -145 132
-156 132 -3 0 -26 20 -51 45 -25 25 -64 59 -88 75 -42 29 -43 31 -32 62 7 18
15 35 18 38 4 3 19 29 33 59 26 51 29 53 59 47 17 -4 180 -32 362 -62z m10815
-58 c0 -8 16 -45 35 -82 19 -37 35 -70 35 -75 0 -11 -18 -27 -100 -89 -40 -30
-85 -67 -99 -81 -14 -14 -64 -54 -111 -90 -47 -35 -99 -78 -117 -96 -17 -17
-57 -48 -87 -68 -30 -20 -73 -54 -94 -76 -22 -21 -43 -39 -47 -39 -9 0 -35 27
-35 36 0 3 -12 33 -27 66 l-26 60 36 31 c20 18 46 39 58 47 l21 16 -43 88
c-43 86 -44 87 -74 81 -16 -3 -48 -8 -71 -12 l-41 -5 -33 81 c-18 45 -31 83
-29 85 2 2 162 27 354 57 193 29 352 56 355 60 5 8 49 15 108 17 22 1 32 -3
32 -12z m-11233 -477 c42 -16 133 -105 133 -130 0 -6 14 1 31 15 17 14 42 29
56 32 47 12 135 -4 201 -37 54 -28 67 -40 89 -83 22 -43 25 -58 19 -109 -6
-59 -63 -257 -77 -267 -4 -3 -12 -24 -18 -47 -13 -47 -16 -48 -58 -32 -15 6
-50 16 -78 24 -89 23 -360 109 -365 115 -6 6 -73 29 -197 66 -56 16 -93 32
-93 40 0 33 100 338 121 368 15 23 37 38 64 46 22 7 45 14 50 16 14 4 96 -7
122 -17z m11473 -125 c25 -81 25 -101 3 -108 -10 -3 -90 -26 -178 -52 -88 -26
-172 -49 -187 -52 -16 -2 -28 -8 -28 -12 0 -4 -38 -17 -85 -30 -47 -13 -88
-27 -91 -31 -5 -9 35 -151 46 -159 3 -3 12 -24 18 -48 11 -34 10 -45 0 -55
-13 -13 -151 -57 -178 -57 -14 0 -33 59 -110 340 -10 36 -21 72 -25 81 -7 18
-14 15 216 83 48 14 94 26 103 26 9 0 16 4 16 8 0 8 85 38 131 47 10 2 49 13
87 24 253 78 236 78 262 -5z m-11470 -2526 c0 -12 23 -91 62 -215 l20 -63 156
0 157 0 -49 -45 c-27 -25 -53 -45 -58 -45 -6 0 -120 -79 -137 -95 -3 -4 29
-115 69 -237 10 -32 17 -58 14 -58 -8 0 -158 104 -176 122 -9 9 -28 24 -42 33
-23 15 -27 15 -61 -1 -20 -9 -41 -24 -48 -34 -14 -20 -166 -124 -172 -118 -3
2 4 29 14 59 10 30 24 75 31 102 7 26 16 47 20 47 10 0 31 81 24 92 -3 4 -10
8 -16 8 -9 0 -130 84 -168 117 -8 7 -26 22 -40 33 l-25 19 157 1 157 0 18 58
c9 31 17 59 18 62 4 30 29 100 36 100 4 0 11 16 15 35 6 33 24 50 24 23z
m11240 -103 c19 -63 37 -115 41 -115 4 0 9 -13 13 -30 l6 -30 152 0 152 0 -42
-40 c-24 -21 -79 -62 -122 -91 -44 -28 -80 -53 -80 -55 0 -2 11 -38 24 -81 13
-43 30 -99 37 -125 7 -27 16 -48 20 -48 4 0 9 -9 12 -20 3 -11 1 -20 -4 -20
-8 0 -145 95 -159 110 -12 13 -79 60 -86 60 -9 0 -82 -48 -102 -68 -31 -29
-141 -102 -153 -102 -10 0 -10 3 -3 8 6 4 31 69 55 145 l43 138 -30 24 c-16
13 -40 30 -54 37 -36 19 -90 58 -129 96 l-34 32 151 0 c147 0 151 0 158 23 4
12 10 24 14 27 9 6 70 202 70 224 0 42 18 6 50 -99z m-10090 -2178 c0 -4 25
-43 55 -86 30 -43 55 -83 55 -89 0 -5 6 -12 14 -15 23 -9 39 -79 32 -131 -6
-37 -16 -54 -57 -93 -27 -26 -64 -56 -82 -67 -17 -11 -35 -24 -38 -30 -4 -5
-40 -11 -80 -13 -66 -5 -77 -3 -99 17 l-25 22 -7 -47 c-8 -54 -77 -176 -139
-244 -21 -25 -39 -50 -39 -58 0 -27 -18 -11 -57 50 -23 35 -49 72 -59 82 -13
13 -15 20 -6 23 6 2 12 8 12 14 0 6 20 39 45 75 25 35 52 77 60 93 8 16 26 41
40 56 25 27 30 49 19 78 -9 24 -22 20 -93 -31 -36 -27 -78 -54 -94 -62 -15 -8
-42 -27 -59 -43 -17 -15 -35 -28 -39 -28 -4 0 -16 15 -28 33 -11 17 -35 49
-53 70 l-33 38 25 19 c14 11 31 20 38 20 6 0 12 4 12 9 0 5 46 39 103 77 56
37 107 72 112 78 16 17 83 66 91 66 7 0 131 86 154 107 8 8 44 34 80 57 l65
43 37 -41 c21 -22 38 -45 38 -49z m9016 -123 c77 -26 141 -50 144 -55 3 -4 73
-30 155 -58 222 -76 269 -94 275 -102 3 -4 18 -11 33 -14 24 -6 40 -35 19 -35
-5 0 -29 -29 -53 -65 -39 -58 -69 -82 -69 -56 0 14 -87 44 -105 37 -8 -3 -18
-14 -22 -23 -8 -22 -58 -96 -78 -116 -13 -13 -9 -21 30 -64 25 -26 45 -52 45
-56 0 -5 -13 -28 -30 -52 -16 -24 -30 -48 -30 -53 0 -5 -11 -17 -24 -25 -22
-15 -25 -14 -43 6 -11 12 -25 30 -30 41 -6 10 -33 44 -62 75 -28 31 -78 89
-111 129 -33 41 -71 86 -84 100 -74 82 -146 172 -146 183 0 7 -3 9 -6 6 -4 -3
-24 16 -46 43 l-39 49 21 38 c29 54 91 125 106 119 6 -2 74 -26 150 -52z
m-8632 -400 c26 -32 67 -75 91 -96 25 -22 45 -45 45 -52 0 -7 30 -41 66 -75
68 -66 76 -87 35 -107 -12 -7 -40 -28 -61 -49 l-38 -37 -56 59 c-31 32 -75 80
-99 107 -43 48 -43 48 -73 33 -16 -8 -39 -26 -52 -40 l-24 -25 84 -87 c46 -47
87 -95 92 -106 8 -16 0 -28 -45 -69 -30 -27 -59 -49 -66 -50 -6 0 -33 26 -60
57 -67 79 -122 133 -135 133 -7 0 -34 -23 -60 -51 l-48 -51 53 -60 c28 -33 73
-82 100 -109 44 -46 57 -69 39 -69 -4 0 -34 -25 -65 -55 -31 -30 -60 -55 -64
-55 -12 0 -53 43 -53 56 0 6 -15 23 -34 38 -19 14 -63 60 -97 102 -34 42 -80
93 -102 113 -48 46 -45 68 17 110 23 16 74 61 112 99 39 38 77 73 86 78 17 10
197 173 268 244 41 41 75 67 91 69 4 1 27 -24 53 -55z m8183 5 c16 -17 48 -45
73 -62 25 -16 73 -55 106 -86 34 -31 91 -78 127 -106 36 -27 66 -53 66 -57 1
-4 25 -25 54 -46 28 -22 74 -60 100 -85 27 -25 55 -48 64 -51 11 -5 5 -16 -26
-49 -23 -24 -49 -53 -57 -65 -18 -26 -37 -28 -55 -5 -8 9 -27 24 -42 33 -16
10 -54 41 -85 69 -31 28 -91 78 -132 112 -41 33 -84 69 -95 80 -45 41 -164
139 -171 139 -9 0 -74 70 -74 79 0 4 23 31 50 60 28 29 50 57 50 62 0 18 20 8
47 -22z m-158 -358 c28 -18 51 -39 51 -45 0 -7 -11 -23 -25 -36 -14 -13 -25
-29 -25 -35 0 -6 -11 -21 -23 -33 -22 -21 -26 -22 -53 -7 -62 32 -124 9 -124
-46 0 -19 8 -34 24 -44 23 -16 29 -14 113 19 152 61 211 64 302 14 45 -25 68
-45 84 -74 7 -12 23 -41 37 -65 20 -36 25 -58 25 -121 0 -64 -4 -81 -22 -107
-13 -16 -23 -35 -23 -40 0 -15 -80 -75 -127 -96 -50 -21 -131 -17 -184 10 -56
28 -99 65 -99 83 1 9 22 41 48 69 l47 53 49 -25 c62 -31 90 -32 121 0 35 34
33 78 -4 116 -16 16 -36 29 -44 29 -30 0 -187 -60 -187 -72 0 -11 -138 -10
-142 1 -1 5 -26 20 -55 35 -64 32 -97 74 -118 152 -16 57 -16 64 -1 118 21 70
70 127 140 162 72 35 144 30 215 -15z m-7594 -100 c17 -13 29 -25 28 -27 -4
-6 93 -94 104 -94 12 0 54 -47 76 -87 23 -42 21 -117 -4 -173 -26 -58 -135
-165 -195 -192 -82 -36 -174 -7 -250 80 l-30 35 -30 -38 c-16 -21 -54 -63 -85
-94 -31 -31 -63 -67 -71 -79 -18 -27 -10 -31 -103 52 l-49 44 29 42 c16 23 37
47 46 54 10 6 43 41 74 76 31 36 86 98 123 139 37 40 103 113 147 161 44 48
91 102 104 119 25 34 20 36 86 -18z m7089 -282 c25 -34 46 -66 46 -73 0 -13
-78 -74 -126 -99 -16 -8 -46 -32 -66 -52 l-37 -38 36 -43 c19 -24 37 -44 40
-44 10 0 115 74 145 102 40 37 77 62 83 56 3 -2 23 -32 45 -66 40 -62 47 -82
32 -82 -4 0 -27 -18 -50 -40 -22 -22 -44 -40 -47 -40 -3 0 -28 -17 -55 -37
l-49 -37 24 -32 c14 -18 25 -36 25 -41 1 -4 9 -18 20 -31 25 -31 42 -25 115
43 33 30 65 55 70 55 6 0 28 14 49 32 21 17 41 27 44 21 16 -23 69 -89 90
-111 12 -14 22 -28 22 -31 0 -3 -26 -22 -58 -43 -31 -20 -73 -50 -92 -67 -54
-47 -210 -162 -210 -154 0 3 -8 -2 -19 -11 -18 -16 -21 -14 -80 63 -33 44 -61
82 -61 85 0 2 -13 18 -29 35 -15 16 -52 65 -81 108 -29 43 -58 81 -65 85 -7 4
-38 45 -69 91 -31 46 -72 99 -91 118 -42 41 -44 63 -7 86 31 20 140 100 162
120 41 37 179 133 191 133 4 0 28 -27 53 -61z m-6577 -148 c29 -20 53 -40 53
-44 0 -12 -89 -148 -112 -172 -25 -26 -125 -173 -138 -202 -5 -13 -13 -23 -18
-23 -5 0 -18 -17 -30 -39 -23 -41 -29 -100 -12 -131 12 -23 72 -44 100 -35 29
9 80 54 80 70 0 8 6 18 13 22 15 9 107 136 107 147 0 10 50 76 76 102 12 11
29 36 38 55 9 19 26 47 39 62 l23 29 62 -36 c85 -50 91 -65 51 -123 -18 -25
-42 -56 -53 -67 -12 -12 -21 -23 -21 -26 -1 -9 -122 -187 -154 -227 -17 -21
-51 -63 -75 -94 -31 -39 -61 -64 -98 -81 -107 -51 -174 -46 -273 21 -102 68
-140 156 -115 263 15 58 54 154 67 159 9 5 83 106 83 115 0 10 82 124 90 124
4 0 13 12 21 27 8 16 34 56 58 91 49 72 53 72 138 13z m6049 -246 c14 -34 105
-188 132 -223 9 -13 30 -47 45 -75 15 -29 46 -82 67 -119 22 -36 40 -71 40
-77 0 -6 4 -11 9 -11 5 0 24 -26 44 -59 l35 -58 -27 -21 c-14 -12 -48 -33 -74
-47 l-49 -25 -34 21 c-19 11 -40 26 -47 32 -18 18 -147 102 -185 121 -18 9
-41 25 -50 34 -23 23 -82 65 -82 58 0 -3 11 -24 23 -48 83 -153 101 -184 111
-193 7 -5 28 -37 48 -70 43 -70 42 -71 -48 -119 l-63 -33 -14 21 c-8 11 -26
44 -40 73 -15 28 -30 53 -35 55 -8 3 -72 104 -72 114 0 4 -20 40 -45 81 -25
40 -45 78 -45 83 0 4 -4 10 -9 12 -9 3 -70 102 -111 181 -14 27 -33 56 -42 66
-16 18 -15 20 18 37 19 10 34 22 34 25 0 4 17 17 38 29 l37 22 43 -22 c23 -13
42 -26 42 -30 0 -7 105 -80 116 -80 9 0 97 -62 123 -87 13 -13 28 -23 33 -23
6 0 23 -9 38 -20 l28 -20 -31 58 c-17 31 -36 62 -43 67 -11 9 -94 151 -94 161
0 7 -54 88 -65 97 -7 6 -7 10 0 13 6 2 39 21 74 43 l64 38 25 -26 c14 -14 30
-39 38 -56z m-5385 -166 c3 -5 42 -25 87 -44 44 -19 93 -42 108 -52 107 -70
42 -339 -87 -359 -41 -7 -43 -23 -6 -58 17 -16 19 -28 14 -84 -3 -35 -9 -67
-14 -71 -5 -3 -15 -19 -21 -36 -14 -32 -91 -118 -122 -135 -35 -19 -150 -6
-170 19 -3 4 -66 35 -140 70 -74 34 -138 66 -142 70 -7 6 80 204 101 228 5 6
20 33 32 60 12 26 41 89 65 140 23 50 45 101 49 112 3 12 10 21 14 21 5 0 28
42 51 94 l43 94 66 -30 c36 -17 69 -34 72 -39z m4651 -213 c78 -36 119 -83
181 -206 12 -25 25 -47 28 -50 4 -3 18 -40 33 -84 21 -63 26 -97 26 -175 0
-112 -17 -161 -71 -205 -19 -15 -43 -35 -54 -44 -30 -25 -70 -41 -123 -48 -95
-12 -196 48 -296 175 -59 76 -116 259 -116 373 0 133 43 210 143 258 83 39
172 41 249 6z m-4083 -42 c45 -14 81 -30 81 -34 0 -16 -52 -175 -59 -180 -10
-8 -121 -353 -124 -385 -2 -27 1 -28 121 -67 67 -21 122 -44 122 -49 0 -6 -14
-50 -31 -99 -24 -68 -36 -90 -49 -90 -10 0 -20 4 -22 9 -1 5 -91 37 -198 71
-107 33 -196 62 -198 64 -4 5 49 170 57 176 6 5 16 33 102 300 29 91 56 167
61 170 4 3 17 36 28 73 11 37 23 67 25 67 2 0 40 -12 84 -26z m569 -179 c83
-20 82 -16 53 -133 -10 -43 -29 -120 -40 -172 -47 -206 -54 -230 -62 -230 -5
0 -9 -9 -9 -20 0 -17 -10 -61 -52 -227 -6 -24 -13 -43 -16 -43 -2 0 -21 4 -41
9 -20 6 -58 15 -84 22 -32 8 -46 16 -43 25 7 18 45 179 57 238 5 28 13 52 18
55 4 4 29 98 55 211 68 293 67 289 80 285 6 -2 44 -11 84 -20z m2815 -18 c20
-11 37 -24 37 -28 0 -4 14 -22 31 -40 58 -62 107 -194 130 -350 16 -108 6
-185 -31 -259 -27 -53 -37 -63 -83 -83 -28 -13 -79 -29 -112 -36 -33 -8 -91
-22 -129 -32 -54 -13 -72 -15 -81 -5 -7 7 -45 154 -86 327 -40 172 -76 316
-79 319 -4 3 -12 28 -19 55 -6 28 -14 58 -17 68 -4 11 0 17 10 17 9 0 16 4 16
8 0 4 28 14 63 21 34 8 98 22 142 31 92 21 153 17 208 -13z m-2405 -78 c17 -7
21 -14 17 -31 -11 -54 -36 -261 -31 -266 4 -3 6 -1 6 5 0 5 21 32 46 59 26 27
63 73 84 104 21 30 50 66 65 79 27 23 27 23 141 10 63 -7 114 -16 114 -19 0
-4 -13 -19 -30 -35 -16 -15 -27 -31 -25 -35 3 -4 -11 -20 -29 -34 -19 -14 -63
-60 -96 -102 l-62 -75 12 -47 c6 -26 13 -54 15 -62 2 -8 27 -106 56 -218 28
-111 50 -205 47 -207 -6 -7 -168 14 -194 24 -17 8 -25 31 -48 157 -37 203 -33
196 -85 149 -54 -49 -67 -75 -75 -155 -13 -112 -16 -120 -44 -120 -14 0 -54 5
-90 11 l-64 11 6 42 c4 22 18 127 32 231 14 105 29 217 34 250 4 33 13 101 19
150 6 50 14 103 17 118 l6 28 66 -7 c37 -3 77 -10 90 -15z m1796 -30 c3 -16
11 -81 17 -144 7 -63 16 -112 20 -109 5 3 9 -14 10 -38 0 -24 12 -146 28 -272
18 -154 24 -229 17 -232 -6 -2 -46 -5 -90 -7 l-79 -2 -20 40 c-12 22 -26 45
-33 50 -13 11 -84 120 -84 130 0 11 -69 114 -90 135 -11 11 -20 28 -20 37 0 9
-3 14 -6 10 -9 -9 27 -321 37 -325 5 -2 9 -27 9 -57 l0 -53 -75 -11 c-41 -6
-80 -8 -88 -5 -10 4 -21 70 -41 252 -15 136 -35 317 -46 402 -10 85 -15 158
-11 163 4 4 43 10 87 13 l80 7 31 -59 c18 -33 41 -70 53 -84 22 -25 46 -62 83
-128 63 -111 83 -142 90 -142 10 0 9 58 -1 62 -9 3 -54 369 -47 376 2 2 34 7
72 11 37 5 73 9 79 10 6 0 14 -13 18 -30z m-729 -51 c2 -7 6 -194 8 -415 l5
-403 -88 0 -87 0 -6 58 c-5 44 -12 729 -8 765 2 13 171 8 176 -5z"/>
<path d="M6237 12849 l-32 -31 0 -126 c0 -90 4 -127 13 -130 6 -2 12 -10 12
-18 0 -8 9 -33 21 -55 26 -51 70 -73 122 -58 58 16 72 48 72 164 0 134 -18
206 -64 251 -48 46 -97 47 -144 3z"/>
<path d="M8740 12482 c-25 -42 -45 -81 -45 -85 0 -4 -5 -11 -11 -15 -10 -7
-34 -45 -34 -56 0 -11 105 -35 111 -25 6 11 31 251 26 256 -2 1 -23 -32 -47
-75z"/>
<path d="M4820 12543 c-8 -3 -25 -9 -37 -14 l-21 -8 27 -70 c15 -39 30 -73 33
-76 7 -8 68 15 68 26 0 5 7 9 15 9 23 0 48 46 41 75 -14 53 -70 79 -126 58z"/>
<path d="M4206 12155 c8 -28 20 -71 25 -97 6 -27 14 -48 19 -48 4 0 11 -16 14
-35 4 -19 10 -36 14 -38 4 -2 28 8 54 23 l47 26 -37 48 c-20 26 -63 76 -94
109 l-57 62 15 -50z"/>
<path d="M10300 11714 c-30 -30 -76 -71 -102 -92 -26 -20 -47 -39 -47 -42 0
-4 77 -57 100 -68 3 -1 18 31 33 72 15 41 31 76 36 78 11 4 52 108 42 107 -4
0 -32 -25 -62 -55z"/>
<path d="M8968 10845 c14 -81 6 -256 -17 -355 -33 -140 -80 -275 -101 -290 -4
-3 -22 -32 -40 -65 -37 -67 -92 -148 -124 -183 -12 -12 -52 -57 -91 -100 -88
-97 -170 -166 -247 -207 -39 -21 -56 -35 -48 -40 8 -5 16 -1 22 9 5 9 15 16
21 16 7 0 42 21 76 48 35 26 76 56 91 67 15 11 45 40 66 65 21 25 56 62 76 83
21 21 38 40 38 42 0 2 25 37 55 77 30 40 55 78 55 85 0 6 15 31 34 56 42 55
78 146 118 295 28 104 32 132 31 252 0 79 -5 145 -11 160 -10 22 -11 20 -4
-15z"/>
<path d="M9231 10353 c0 -24 1 -25 8 -8 7 18 12 14 40 -29 17 -28 31 -54 31
-58 0 -5 9 -28 20 -50 11 -23 20 -48 20 -55 0 -8 7 -16 14 -19 14 -5 45 -87
61 -158 3 -16 7 -79 7 -140 1 -81 3 -98 8 -61 3 28 9 43 12 35 20 -48 28 -89
28 -136 0 -41 3 -52 14 -48 11 4 17 -15 26 -82 11 -80 11 -118 -4 -214 -4 -25
-1 -20 9 15 22 69 8 308 -19 330 -7 6 -18 41 -25 79 -6 38 -19 82 -27 97 -7
15 -14 45 -14 66 -1 69 -50 233 -70 233 -4 0 -11 16 -14 35 -4 19 -11 35 -15
35 -5 0 -12 12 -15 26 -9 34 -73 134 -86 134 -5 0 -10 -12 -9 -27z"/>
<path d="M7160 10307 c-34 -21 -46 -22 -293 -22 -177 0 -260 -3 -265 -11 -4
-6 -23 -16 -43 -23 -20 -6 -47 -23 -59 -36 -13 -14 -29 -25 -35 -25 -13 0 -65
-72 -65 -89 0 -5 -4 -11 -8 -13 -14 -6 -52 -66 -52 -81 0 -9 -16 -21 -36 -27
-20 -7 -58 -34 -85 -60 -41 -40 -49 -54 -49 -84 0 -20 3 -36 6 -36 3 0 23 13
44 30 60 48 77 51 225 38 74 -6 132 -15 129 -20 -3 -4 -11 -8 -18 -8 -8 0 -33
-9 -57 -20 -31 -14 -66 -20 -120 -20 -60 0 -76 -3 -76 -15 0 -18 50 -35 106
-38 45 -1 44 -7 -2 -24 -19 -7 -25 -12 -14 -12 30 -2 127 56 127 75 0 5 17 20
36 34 20 14 48 33 63 43 l26 19 -51 -6 c-28 -4 -104 -2 -167 4 -100 9 -122 8
-157 -6 -22 -9 -40 -21 -40 -27 0 -6 -3 -7 -7 -4 -3 4 -15 0 -25 -10 -17 -15
-18 -15 -18 1 0 20 28 76 38 76 4 0 23 13 42 30 21 18 55 34 87 40 29 6 55 16
58 21 4 5 -5 5 -20 -1 -34 -13 -35 -13 -35 8 0 10 12 31 28 48 15 16 36 46 47
68 11 21 25 40 32 43 7 3 28 19 47 37 19 18 55 39 80 46 26 7 49 17 52 21 8
13 344 11 344 -1 0 -6 28 -10 65 -10 53 0 73 5 106 26 23 14 43 23 45 21 12
-12 -12 -60 -42 -87 -19 -16 -30 -30 -25 -30 5 0 13 5 16 10 3 6 10 10 16 10
16 0 10 -25 -13 -50 -12 -13 -23 -32 -23 -43 -1 -10 -7 -22 -14 -26 -9 -6 -7
-16 7 -42 11 -19 35 -77 53 -129 18 -52 36 -97 40 -100 4 -3 14 -23 23 -45 9
-22 26 -49 37 -61 24 -26 11 -39 -27 -30 -13 4 -24 3 -24 -2 0 -10 25 -12 62
-6 l28 6 -29 36 c-17 20 -38 57 -47 82 -10 25 -21 47 -25 50 -3 3 -19 43 -34
90 -15 47 -35 97 -43 112 -14 24 -14 28 1 43 10 9 17 23 17 30 0 8 9 29 19 47
10 18 22 50 25 71 4 20 11 37 16 37 6 0 10 11 10 25 0 30 -14 30 -60 2z"/>
<path d="M5052 10125 c7 -16 15 -32 19 -35 12 -10 109 -141 109 -148 0 -10
214 -232 223 -232 6 0 109 -71 142 -98 24 -20 201 -85 320 -118 71 -20 132
-39 135 -43 3 -4 28 -16 55 -26 53 -20 135 -97 228 -212 27 -33 60 -66 73 -73
13 -8 24 -17 24 -22 0 -4 31 -8 69 -8 52 0 70 4 75 15 4 10 -5 19 -27 28 l-32
13 48 24 c64 32 79 50 41 50 -16 0 -35 4 -43 9 -17 11 10 44 61 73 46 26 40
38 -18 38 -28 0 -43 4 -39 10 3 6 14 10 24 10 10 0 36 19 57 43 l39 42 -50 5
c-40 4 -45 7 -28 13 22 8 83 71 83 85 0 4 -12 9 -27 10 -30 2 -44 13 -25 19 6
3 12 9 12 15 0 5 8 20 19 33 14 19 21 21 31 12 7 -7 5 1 -5 16 -11 16 -24 26
-32 23 -60 -23 -147 -37 -210 -34 -61 3 -77 7 -95 27 l-23 23 28 -4 c37 -7 34
9 -4 17 -39 9 -44 3 -25 -28 35 -52 110 -66 226 -39 47 11 93 23 104 27 17 7
17 6 6 -16 -7 -13 -26 -41 -42 -61 l-30 -38 36 0 c20 0 36 -3 36 -8 0 -18 -32
-51 -65 -66 -44 -21 -37 -36 16 -36 21 0 39 -4 39 -8 0 -14 -43 -48 -77 -62
-50 -19 -39 -40 23 -44 l26 -1 -28 -20 c-50 -37 -76 -64 -70 -74 4 -6 23 -13
43 -17 l35 -7 -43 -21 c-75 -36 -76 -37 -38 -57 l34 -18 -69 -1 -68 0 -58 59
c-32 33 -66 72 -75 88 -28 45 -152 151 -185 158 -16 4 -30 10 -30 14 0 4 -42
20 -92 36 -215 64 -256 77 -305 96 -29 12 -53 25 -53 30 0 5 -5 9 -10 9 -11 0
-121 67 -130 79 -3 4 -20 17 -38 30 -18 13 -54 46 -80 75 -26 28 -65 68 -87
88 -22 21 -40 42 -40 46 0 4 -14 26 -31 47 -17 22 -44 60 -60 85 -16 25 -37
54 -47 65 -18 20 -18 19 -5 -10z"/>
<path d="M6910 9664 c-14 -17 -13 -18 2 -6 14 11 19 10 32 -10 20 -28 20 -41
0 -80 l-17 -32 -18 23 c-11 13 -19 19 -19 13 0 -5 7 -15 15 -22 18 -15 19 -31
3 -65 -14 -31 -32 -32 -52 -3 -20 28 -20 20 -1 -26 14 -33 14 -38 -2 -63 l-18
-27 -6 29 c-6 28 -7 28 -8 5 l-2 -25 -15 28 c-13 25 -13 31 0 59 21 41 20 45
-4 17 -17 -21 -19 -22 -20 -6 0 10 -4 16 -9 12 -5 -3 -13 5 -17 17 -11 31 -11
34 -13 65 -1 34 -10 25 -13 -14 -3 -30 -58 -89 -72 -76 -3 3 -5 -9 -5 -28 1
-23 3 -27 6 -12 2 13 21 36 41 52 l36 30 16 -27 c28 -47 29 -58 3 -90 -29 -37
-56 -41 -77 -10 -9 12 -16 18 -16 12 0 -6 9 -19 20 -29 l20 -18 -22 -26 -23
-26 27 24 c14 12 31 20 38 16 6 -3 9 -3 8 2 -3 8 46 73 54 73 2 0 12 -15 22
-34 18 -34 18 -35 -4 -66 -13 -19 -28 -29 -36 -26 -11 4 -12 1 -5 -12 7 -14 3
-26 -15 -50 -30 -38 -44 -41 -45 -9 -1 17 -2 18 -6 4 -4 -15 -7 -16 -21 -5
-14 12 -14 10 1 -12 15 -24 15 -27 -14 -65 -33 -43 -40 -46 -50 -18 -5 11 -7
2 -6 -24 1 -22 4 -39 6 -37 2 2 10 -4 18 -14 13 -15 13 -15 3 6 -10 19 -6 29
22 65 54 70 121 129 130 114 4 -7 6 1 4 18 -3 21 3 39 19 59 l23 28 17 -45
c14 -37 15 -49 4 -68 -11 -21 -10 -22 2 -12 16 13 25 9 52 -23 16 -19 16 -24
2 -57 -15 -37 -35 -57 -35 -36 0 21 -14 0 -15 -23 -1 -12 9 -33 22 -45 12 -13
23 -20 23 -15 0 5 -7 15 -15 22 -17 14 -20 40 -4 40 5 0 17 16 25 36 13 31 17
34 31 22 15 -12 15 -11 4 9 -10 19 -8 30 10 65 l22 42 22 -44 c12 -24 20 -53
18 -64 -4 -16 -2 -18 5 -7 16 22 84 -56 71 -80 -12 -24 -11 -38 2 -16 6 9 13
16 17 13 4 -2 7 7 7 20 0 13 -5 23 -11 21 -11 -2 -74 59 -74 71 0 3 8 14 17
24 15 17 15 18 1 13 -11 -4 -18 0 -21 12 -3 11 -3 10 -2 -4 3 -28 -11 -20 -30
18 -14 26 -14 32 0 62 15 29 15 30 0 12 -16 -20 -17 -20 -41 8 -30 35 -30 48
-1 75 l23 22 23 -30 c12 -17 19 -36 15 -42 -4 -7 -3 -8 4 -4 7 4 12 2 12 -5 0
-6 8 -17 17 -24 11 -8 17 -26 17 -51 -1 -22 1 -31 3 -21 3 9 7 17 10 17 11 0
63 -63 63 -76 0 -8 5 -14 11 -14 6 0 8 7 5 16 -3 8 1 30 9 47 15 30 15 31 -1
10 -22 -31 -36 -29 -63 8 -23 31 -23 31 -5 66 11 19 25 37 32 40 6 3 12 13 12
22 0 10 11 28 24 40 23 21 24 22 30 4 3 -10 16 -24 28 -32 19 -12 18 -9 -6 19
-20 24 -26 40 -21 57 4 17 2 22 -5 18 -6 -4 -21 1 -33 11 -20 17 -20 16 1 -8
25 -28 22 -49 -12 -78 -14 -10 -16 -10 -17 6 0 18 -1 18 -8 -1 -7 -18 -9 -17
-24 12 -16 30 -15 32 5 59 12 16 25 31 28 34 13 11 4 45 -10 43 -16 -3 -56 54
-46 64 7 7 -24 32 -39 32 -5 0 -2 -4 8 -10 21 -12 22 -42 1 -63 -8 -9 -10 -16
-4 -16 6 0 13 7 16 15 5 12 12 8 35 -16 34 -37 34 -37 9 -69 l-19 -25 -27 28
c-15 16 -29 45 -31 65 -6 43 -13 56 -13 23 0 -12 -4 -19 -10 -16 -21 13 16
-51 44 -76 22 -20 28 -33 24 -52 -3 -16 -1 -24 6 -21 6 2 19 -8 30 -22 18 -25
18 -27 0 -60 -11 -19 -21 -29 -25 -23 -4 8 -8 7 -12 -2 -4 -10 -8 -7 -12 9 -4
12 -11 22 -16 22 -15 0 -10 27 6 34 8 3 15 11 15 17 0 7 -8 5 -20 -6 -19 -18
-20 -17 -21 6 0 20 -2 21 -8 6 -6 -17 -8 -17 -19 5 -9 17 -10 31 -3 50 7 19 6
31 -4 44 -13 18 -14 18 -8 -3 8 -32 -9 -28 -28 6 -16 27 -16 31 5 67 29 51 38
77 26 69 -6 -3 -20 6 -33 20 -22 26 -23 26 -37 9z"/>
<path d="M6731 9120 c-1 -8 3 -22 9 -30 6 -9 5 -20 -3 -29 -9 -11 -9 -13 0 -8
7 4 21 -10 37 -39 31 -56 32 -64 5 -98 -29 -37 -73 -36 -94 4 -22 42 -19 57
15 82 17 12 30 26 30 32 0 5 -11 -1 -24 -13 -18 -17 -25 -19 -29 -9 -3 8 -6 5
-7 -7 -1 -18 -2 -18 -16 5 -10 15 -13 17 -8 5 10 -26 10 -65 -1 -90 -7 -19 -7
-19 7 -2 13 18 15 17 26 -7 l12 -26 -55 0 c-49 0 -57 3 -67 25 -6 14 -15 25
-20 25 -4 0 -8 6 -8 14 0 8 -4 18 -10 21 -15 9 7 -44 27 -63 16 -16 1 -17
-225 -20 l-242 -2 0 -451 c0 -323 -3 -456 -12 -472 -14 -27 -116 -130 -143
-145 -11 -6 -17 -13 -13 -17 3 -4 15 2 25 12 11 10 33 30 49 44 16 14 44 43
61 63 l32 37 4 -158 3 -158 2 178 2 177 239 0 239 0 4 -177 c4 -196 11 -223
79 -318 34 -47 153 -131 227 -160 l42 -17 0 -274 c0 -256 -1 -273 -17 -268
-17 5 -17 5 -1 -5 11 -8 25 -8 42 -1 18 6 26 6 26 -1 0 -20 42 -70 66 -80 21
-7 24 -14 20 -41 -3 -18 -3 -27 1 -20 4 10 8 9 19 -5 12 -16 12 -14 2 14 -11
28 -9 37 10 71 12 22 22 48 22 58 -1 11 -7 2 -15 -19 -18 -52 -25 -56 -26 -16
l-2 34 -6 -36 c-5 -33 -8 -36 -28 -28 -12 4 -29 22 -39 40 -15 31 -15 33 2 46
10 7 24 13 31 13 7 0 13 4 13 9 0 7 51 31 66 31 2 0 4 -9 4 -19 0 -11 5 -23
11 -26 7 -5 9 4 7 26 -3 30 0 34 61 66 35 18 68 33 74 33 15 0 3 -141 -16
-179 -24 -47 -21 -53 5 -12 17 27 23 54 26 122 4 73 7 89 22 94 9 3 25 14 35
25 10 11 21 20 25 20 3 0 17 -20 29 -45 24 -49 35 -54 50 -27 8 13 10 7 11
-30 0 -56 9 -64 43 -38 34 27 45 25 61 -12 8 -18 15 -26 15 -18 1 9 -6 25 -14
37 -10 14 -13 33 -10 50 5 28 5 28 -5 3 -12 -27 -35 -44 -62 -46 -13 -1 -18 7
-19 30 -1 17 -5 42 -9 56 -7 23 -8 23 -9 3 -1 -25 -21 -42 -21 -18 0 9 -4 14
-8 11 -12 -7 -32 34 -30 60 1 14 7 20 15 17 8 -3 13 -1 11 5 -4 13 123 133
133 126 12 -7 83 93 130 184 23 45 46 82 49 82 4 0 10 -10 13 -22 4 -12 9 -19
13 -16 5 6 66 -35 123 -83 29 -25 105 -63 163 -84 60 -21 118 -19 191 7 34 12
87 25 117 28 l55 7 -50 2 c-28 0 -72 -7 -100 -18 -119 -45 -205 -35 -314 38
-30 20 -61 41 -70 46 -68 43 -141 109 -137 124 3 9 8 33 12 54 3 20 11 40 16
43 5 4 26 -10 47 -30 20 -20 41 -36 47 -36 5 0 14 -8 21 -19 6 -10 27 -29 45
-42 26 -18 24 -13 -13 23 -26 25 -51 47 -57 49 -5 2 -27 20 -48 39 l-39 35 3
179 c3 119 0 182 -7 189 -6 6 -11 24 -11 39 l0 29 -230 -3 -230 -3 0 113 0
112 100 -6 c99 -7 122 -2 76 16 -40 15 -58 53 -60 125 -1 72 15 98 43 70 12
-12 16 -12 28 3 12 16 13 15 19 -6 l7 -23 19 21 c11 11 23 18 29 15 5 -4 9 -1
9 5 0 6 12 22 27 34 l28 24 -31 68 c-27 62 -35 72 -84 98 -35 19 -55 25 -58
18 -2 -7 -13 -10 -28 -6 -17 4 -26 1 -30 -10 -7 -18 -74 -23 -74 -6 0 10 14
14 39 11 7 -2 10 2 7 7 -3 6 2 8 13 5 10 -3 22 0 25 6 7 11 -2 14 -44 12 l-25
-1 24 12 c19 10 29 9 55 -5 l31 -17 -24 20 c-31 27 -60 25 -104 -4 -20 -14
-52 -28 -71 -31 -41 -8 -80 -41 -72 -62 3 -8 1 -11 -4 -8 -6 3 -10 0 -10 -9 0
-8 -11 -28 -25 -44 -14 -17 -25 -39 -25 -50 0 -21 23 -46 33 -35 4 3 7 -3 7
-15 0 -26 19 -39 31 -21 8 11 12 10 24 -5 14 -19 15 -19 35 -1 18 16 20 16 26
1 5 -13 9 -14 21 -4 12 10 18 9 30 -7 11 -15 13 -37 10 -83 -5 -65 -27 -113
-27 -59 l0 27 -175 0 -175 0 0 285 0 285 415 -2 c228 -2 415 0 415 5 0 4 -112
7 -250 7 -193 0 -250 3 -250 13 0 9 -2 9 -9 -1 -5 -9 -26 -12 -67 -10 -56 3
-59 4 -65 33 l-7 30 -1 -35 -2 -35 -30 35 c-16 19 -28 42 -26 50 3 8 8 24 12
35 5 14 4 16 -3 7 -7 -11 -11 -8 -16 12 -6 25 -26 37 -26 16 0 -5 5 -10 10
-10 14 0 12 -37 -2 -43 -10 -4 -10 -6 0 -6 6 -1 12 -10 12 -21 0 -11 3 -20 8
-20 4 0 15 -12 25 -25 l18 -25 -51 0 c-48 0 -50 1 -51 28 -2 23 -2 24 -6 5 -2
-13 -8 -23 -12 -23 -11 0 -50 43 -50 55 0 6 6 17 13 25 7 8 16 22 20 30 4 8
-1 4 -12 -10 -17 -21 -22 -22 -37 -10 -15 12 -15 11 -5 -12 9 -19 9 -31 1 -46
-6 -11 -11 -24 -11 -29 1 -4 6 2 13 15 l13 23 24 -26 23 -25 -102 0 -102 0 18
25 c22 30 27 31 42 3 8 -17 10 -17 5 -3 -9 26 -9 55 0 80 7 18 6 18 -4 3 -12
-20 -36 -25 -24 -6 4 6 3 8 -3 5 -10 -6 -43 53 -43 77 0 8 7 19 15 26 8 7 15
17 15 23 0 6 -7 1 -16 -12 l-17 -24 -13 24 c-8 15 -13 18 -13 9z m740 -537
c16 -10 29 -23 29 -31 0 -7 5 -10 10 -7 49 30 98 4 78 -41 -12 -26 -28 -30
-61 -13 -23 13 -97 18 -97 7 0 -4 12 -8 28 -10 15 -2 -23 -3 -84 -3 -89 0
-108 2 -95 12 14 11 14 12 1 13 -9 0 -20 -4 -26 -10 -11 -11 -56 -2 -49 11 3
4 13 5 22 2 12 -5 15 -2 10 10 -8 20 1 26 83 53 80 28 114 29 151 7z m-1190
-48 c24 -14 53 -25 65 -25 20 0 21 -7 27 -105 7 -108 0 -195 -14 -195 -5 0 -9
26 -9 58 0 39 -6 67 -20 89 -11 18 -17 39 -14 47 4 10 -2 16 -19 18 l-25 3 18
37 c17 35 17 38 1 43 -17 5 -70 55 -59 55 3 0 26 -11 49 -25z m689 -457 l24
-78 112 0 113 0 -22 -23 c-12 -13 -50 -44 -84 -71 -35 -26 -63 -53 -62 -59 0
-7 13 -52 28 -102 16 -49 27 -92 25 -94 -2 -3 -14 5 -27 17 -13 12 -27 22 -32
22 -4 0 -31 18 -60 39 l-52 39 -49 -30 c-27 -17 -65 -44 -85 -59 -45 -35 -51
-36 -40 -6 5 13 20 60 34 104 l25 81 -49 36 c-27 20 -52 36 -57 36 -4 0 -23
15 -41 33 l-34 32 112 3 c87 2 111 6 111 17 0 7 6 20 13 27 7 7 21 42 31 78
23 82 28 90 37 60 3 -14 17 -60 29 -102z"/>
<path d="M6430 7691 c0 -10 -7 -21 -15 -25 -24 -9 -18 -54 10 -72 25 -16 34
-44 15 -44 -16 0 -11 -33 10 -58 10 -13 32 -24 48 -25 17 -1 28 -6 25 -11 -3
-4 5 -5 17 -1 21 7 21 6 3 -12 -13 -13 -19 -15 -21 -6 -2 7 -7 13 -12 13 -15
0 -22 -20 -16 -45 5 -18 14 -24 48 -27 24 -3 47 -2 53 0 5 3 20 7 33 8 30 3
24 -20 -6 -24 -15 -2 -21 -10 -19 -25 1 -14 -4 -22 -18 -24 -18 -3 -18 -3 -3
7 10 6 15 17 11 26 -4 11 -9 12 -19 3 -33 -27 7 -76 52 -65 24 6 26 5 20 -18
-9 -36 27 -59 72 -47 18 6 36 10 40 11 9 1 3 70 -9 93 -13 24 -44 21 -62 -6
-15 -23 -14 -23 15 -19 22 3 27 7 17 14 -12 8 -11 9 0 6 28 -8 23 -28 -9 -34
-23 -5 -30 -11 -26 -23 4 -11 2 -10 -9 3 -17 22 -19 43 -6 48 5 2 6 21 2 43
-6 36 -9 40 -39 43 -27 3 -32 7 -27 22 3 10 3 30 -1 44 -5 22 -12 26 -40 26
-38 0 -43 10 -17 36 13 13 14 19 5 22 -6 2 -12 10 -12 18 0 8 -10 14 -26 14
-21 0 -25 3 -19 18 4 9 10 29 13 44 3 23 -1 29 -22 38 -14 5 -26 14 -26 20 0
5 -7 10 -15 10 -8 0 -15 -9 -15 -19z"/>
<path d="M6150 7100 c0 -5 -17 -21 -37 -36 -21 -14 -31 -24 -22 -21 13 4 15
-3 11 -51 -3 -32 -10 -60 -16 -64 -8 -6 -7 -8 2 -8 7 0 12 -13 12 -30 0 -16
-4 -30 -10 -30 -5 0 2 -11 15 -25 14 -13 25 -29 25 -36 0 -11 28 -38 41 -39 3
0 11 11 17 25 6 14 18 25 27 25 8 0 15 5 15 10 0 6 5 10 10 10 25 0 5 -37 -50
-93 -33 -34 -60 -66 -60 -70 0 -5 -9 -22 -21 -38 -11 -16 -18 -29 -15 -29 4 0
21 24 40 53 45 69 125 142 139 128 18 -18 24 -13 32 26 4 20 12 45 19 55 12
17 14 17 30 -1 30 -33 54 -33 61 1 8 34 -3 53 -12 20 -12 -47 -62 -15 -78 51
-7 24 -5 27 21 28 21 1 23 3 8 6 -11 2 -25 16 -31 31 l-11 27 -1 -26 c-1 -20
-9 -29 -33 -37 l-33 -11 31 5 c28 4 31 2 41 -30 9 -30 7 -42 -13 -82 -14 -28
-24 -39 -24 -28 0 14 -2 16 -9 6 -6 -10 -13 -3 -25 25 -9 21 -15 28 -12 15 3
-16 -1 -25 -12 -29 -9 -4 -23 -15 -30 -25 -12 -16 -16 -17 -30 -6 -12 10 -14
10 -8 1 4 -7 3 -13 -2 -13 -14 0 -42 68 -42 104 0 31 3 33 48 43 l47 11 -45
-2 -45 -1 0 51 c1 38 6 56 23 74 21 22 28 40 17 40 -3 0 -5 -4 -5 -10z"/>
<path d="M4800 6955 c0 -2 15 -12 33 -21 17 -9 42 -26 55 -37 12 -11 22 -16
22 -11 0 5 12 -4 26 -21 28 -32 90 -153 82 -161 -3 -2 -29 1 -59 7 -65 14
-226 7 -242 -11 -10 -10 -8 -11 8 -5 41 16 189 17 248 2 69 -18 70 -15 30 77
-32 73 -52 98 -118 142 -35 24 -44 34 -30 34 38 0 120 -27 180 -58 56 -29 78
-51 203 -197 10 -11 24 -33 32 -48 37 -72 107 -103 166 -72 43 22 58 19 97
-24 19 -22 38 -37 41 -33 3 3 6 -2 6 -10 0 -9 21 -33 46 -54 l46 -39 -59 -27
c-32 -16 -51 -28 -43 -28 48 1 202 109 213 150 3 11 1 18 -4 14 -5 -3 -9 -11
-9 -19 0 -7 -15 -22 -32 -34 -18 -11 -41 -26 -50 -33 -15 -11 -28 -1 -103 75
-90 91 -107 99 -155 73 -26 -15 -85 -11 -108 7 -8 6 -22 28 -33 48 -10 21 -40
61 -66 89 -25 28 -53 61 -62 73 -55 80 -211 156 -323 157 -21 0 -38 -2 -38 -5z"/>
<path d="M4685 6680 c3 -5 13 -10 21 -10 8 0 22 -4 32 -9 92 -45 119 -62 158
-101 25 -25 50 -55 57 -67 42 -77 117 -175 152 -198 36 -24 47 -26 101 -21 70
6 94 -9 94 -57 0 -35 19 -75 39 -82 9 -3 23 -17 32 -32 9 -17 31 -34 55 -42
21 -7 47 -21 56 -30 40 -38 53 -45 86 -44 22 1 78 -20 165 -61 73 -35 145 -66
161 -70 15 -4 34 -13 41 -20 13 -12 55 -27 176 -61 l57 -16 -18 -37 c-9 -20
-20 -50 -23 -67 -6 -29 -6 -28 9 5 9 19 24 52 34 72 l18 37 -32 6 c-64 13
-206 58 -206 66 0 4 -23 15 -51 24 -73 25 -253 110 -273 130 -11 11 -35 18
-67 19 -41 1 -55 6 -71 26 -36 44 1 123 72 154 19 8 28 15 20 15 -39 1 -103
-63 -117 -117 l-8 -31 -33 16 c-18 9 -37 23 -41 32 -16 29 0 70 35 92 31 19
50 40 22 23 -45 -26 -68 -48 -68 -65 0 -26 -25 -24 -44 3 -25 36 -20 65 14 83
38 20 39 27 2 13 -27 -10 -32 -8 -70 32 -23 23 -42 48 -42 56 0 7 -4 16 -10
19 -6 4 -10 -12 -10 -39 0 -46 0 -46 -35 -46 -29 0 -45 9 -89 53 -29 28 -73
84 -96 122 -44 72 -122 154 -175 182 -16 9 -32 19 -35 22 -5 7 -80 31 -94 31
-4 0 -4 -4 -1 -10z"/>
<path d="M8055 6221 c39 -6 94 -38 95 -53 0 -4 17 -16 38 -27 20 -11 53 -33
72 -50 l35 -31 -30 -25 c-16 -14 -36 -31 -44 -37 -21 -17 -178 -91 -261 -123
-41 -16 -77 -32 -80 -36 -5 -7 -146 -51 -202 -63 l-26 -6 19 -39 c10 -22 19
-45 19 -51 0 -5 4 -10 8 -10 8 0 52 -96 52 -112 0 -4 -19 -9 -42 -11 -41 -3
-41 -4 10 -5 28 -1 52 0 52 3 0 8 -64 150 -70 155 -3 3 -11 18 -18 33 -13 31
-16 29 58 47 65 17 164 52 170 60 3 4 43 22 90 39 92 36 233 108 238 122 2 5
11 9 20 9 10 0 23 12 29 27 11 24 10 30 -9 51 -13 13 -38 33 -58 44 -19 12
-40 27 -45 33 -27 33 -90 65 -124 64 l-36 -2 40 -6z"/>
<path d="M4380 4220 l0 -820 473 0 c604 0 723 14 833 96 152 113 210 318 148
530 -14 50 -27 69 -82 122 -66 64 -144 112 -182 112 -33 0 -23 14 25 33 29 12
60 37 87 70 24 29 48 57 55 62 45 37 68 220 40 316 -31 105 -129 213 -227 249
-36 13 -71 28 -79 34 -10 8 -184 12 -553 14 l-538 3 0 -821z m838 459 c54 -27
82 -70 82 -127 0 -60 -22 -106 -61 -128 -28 -15 -64 -19 -196 -22 l-163 -4 0
151 0 151 147 0 c129 0 152 -3 191 -21z m22 -610 c31 -7 55 -21 77 -46 37 -41
47 -77 38 -136 -17 -106 -59 -125 -295 -129 l-175 -3 -3 163 -3 162 158 0 c87
0 178 -5 203 -11z"/>
<path d="M6117 5033 c-4 -3 -7 -372 -7 -820 l0 -813 235 0 235 0 0 28 c-3 251
7 841 15 839 5 -2 20 -23 32 -48 32 -60 66 -111 97 -144 14 -15 26 -31 26 -35
0 -10 120 -201 139 -222 9 -9 41 -58 71 -108 30 -51 64 -102 76 -113 12 -12
27 -33 34 -47 7 -14 31 -53 54 -87 l41 -63 238 0 237 0 0 820 0 820 -240 0
-240 0 2 -440 c2 -242 0 -440 -3 -440 -4 0 -24 30 -45 66 -21 36 -49 77 -61
90 -12 14 -28 35 -34 47 -7 12 -34 55 -60 95 -27 40 -49 76 -49 80 0 5 -8 17
-18 28 -19 21 -77 103 -83 119 -10 26 -92 145 -99 145 -5 0 -12 10 -17 23 -4
12 -33 59 -63 105 l-54 82 -226 0 c-125 0 -230 -3 -233 -7z"/>
<path d="M7960 4220 l0 -820 235 0 235 0 0 442 c0 254 4 438 9 433 5 -6 21
-32 36 -60 14 -27 32 -54 39 -60 15 -12 76 -101 76 -111 0 -10 63 -103 94
-139 14 -16 26 -33 26 -37 0 -9 113 -187 134 -210 15 -17 66 -93 76 -113 27
-55 87 -136 104 -141 12 -2 120 -3 241 -2 l220 3 0 815 0 815 -232 3 -233 2 0
-445 c0 -296 -3 -445 -10 -445 -6 0 -16 12 -22 28 -7 15 -33 59 -58 97 -25 39
-52 82 -59 98 -8 15 -18 27 -22 27 -7 0 -89 122 -89 132 0 9 -65 103 -89 129
-11 12 -21 27 -21 31 0 5 -22 42 -50 83 -27 41 -50 78 -50 83 0 5 -10 20 -23
33 -27 28 -81 106 -90 132 -6 15 -27 17 -242 17 l-235 0 0 -820z"/>
<path d="M2270 10606 c0 -2 13 -18 30 -36 31 -33 114 -141 130 -169 11 -20 39
-6 56 28 7 13 17 28 23 34 6 6 11 15 11 19 0 4 -49 31 -110 59 -60 29 -110 56
-110 60 0 5 -7 9 -15 9 -8 0 -15 -2 -15 -4z"/>
<path d="M11543 10620 c-12 -5 -31 -17 -42 -27 -12 -10 -24 -17 -27 -15 -7 4
-73 -45 -126 -94 -49 -46 -68 -81 -68 -129 0 -27 7 -38 33 -56 17 -13 34 -27
35 -31 5 -11 62 -10 62 0 0 5 18 15 40 22 72 24 182 110 220 173 58 94 -26
198 -127 157z"/>
<path d="M1864 10070 c-25 -10 -64 -57 -64 -76 0 -7 9 -18 19 -24 11 -5 25
-16 33 -22 16 -16 96 -68 103 -68 8 0 139 -82 150 -94 13 -14 52 -36 63 -36
12 0 45 78 45 106 0 63 -137 173 -260 210 -52 16 -60 16 -89 4z"/>
<path d="M1523 9394 c18 -16 99 -74 103 -74 9 0 54 -37 50 -41 -2 -2 14 -16
35 -32 l39 -27 18 37 c9 21 20 40 25 41 4 2 7 11 7 20 0 14 -28 23 -140 48
-77 17 -139 30 -137 28z"/>
<path d="M12365 9293 c-11 -3 -22 -9 -25 -13 -3 -4 -34 -12 -70 -19 -172 -33
-175 -34 -145 -65 8 -8 15 -19 15 -23 0 -5 6 -18 14 -28 13 -18 16 -17 69 23
31 23 59 42 62 42 13 0 94 63 99 76 3 8 4 13 3 13 -1 -1 -11 -4 -22 -6z"/>
<path d="M1221 8768 c-38 -88 -40 -85 35 -107 36 -12 70 -21 74 -21 12 0 30
58 30 94 0 40 -31 68 -82 73 -37 5 -39 3 -57 -39z"/>
<path d="M1554 8720 c-12 -5 -27 -27 -36 -52 -33 -90 -35 -84 34 -107 88 -30
94 -28 112 26 9 26 16 56 16 68 0 44 -77 84 -126 65z"/>
<path d="M2353 3871 c-10 -10 -37 -30 -60 -45 -24 -14 -43 -28 -43 -31 0 -2
12 -17 26 -32 14 -15 32 -36 39 -46 21 -29 69 -25 99 9 48 54 49 56 39 63 -5
3 -22 27 -37 54 -31 52 -37 55 -63 28z"/>
<path d="M11498 3747 c12 -13 22 -28 22 -34 0 -5 34 -42 75 -81 l74 -72 32 46
c35 52 35 52 -41 81 -25 9 -47 20 -50 24 -3 4 -34 19 -69 33 l-65 26 22 -23z"/>
<path d="M3213 2809 c-67 -71 -69 -75 -37 -104 33 -31 102 -35 126 -7 29 34
41 78 27 103 -12 23 -48 58 -61 59 -4 0 -28 -23 -55 -51z"/>
<path d="M4424 2037 c-31 -34 -61 -110 -46 -115 7 -2 19 -10 26 -18 8 -7 32
-16 54 -20 37 -6 40 -4 61 29 37 61 26 94 -44 130 -29 14 -32 14 -51 -6z"/>
<path d="M4276 1735 c-10 -25 -21 -45 -26 -45 -4 0 -13 -13 -18 -29 -10 -27
-9 -29 42 -50 73 -30 103 -28 124 9 9 16 20 30 25 30 18 0 4 41 -24 70 -30 30
-79 60 -97 60 -5 0 -17 -20 -26 -45z"/>
<path d="M8971 1836 c-56 -31 -64 -96 -27 -210 33 -100 49 -128 102 -181 36
-36 51 -45 79 -45 19 0 35 4 35 9 0 5 8 12 18 16 41 12 54 100 28 186 -8 25
-33 80 -57 123 -59 106 -114 137 -178 102z"/>
<path d="M8238 1603 c-22 -6 -22 -7 0 -96 11 -39 29 -117 42 -172 45 -196 36
-178 78 -170 95 16 116 71 84 220 -26 120 -64 202 -98 215 -26 10 -75 11 -106
3z"/>
</g>
</svg>
